PathFileType	4	(X/Y/Z)	/Users/itak/Documents/Research/Walk-IL/dataset/trc/00473_00167.trc
DataRate	CameraRate	NumFrames	NumMarkers	Units	OrigDataRate	OrigDataStartFrame	OrigNumFrames
100.000000	100.000000	4	53	mm	100.000000	431	575
Frame#	Time	RPSI			LPSI			L3			STRN			T10			C7			CLAV			RBAK			LBAK			LSHO			LUPA			LAEL			LAOL			LWTS			LWPS			LFRA			LIFD			LHPS			LHTS			RSHO			RUPA			RAEL			RAOL			RWTS			RWPS			RFRA			RIFD			RHTS			RHPS			RBHD			LFHD			RFHD			LBHD			LHIP			RHIP			RASI			LASI			LKNE			LTHI			LANK			LTIP			LTOE			LMT1			LMT5			LHEE			RKNE			RTHI			RANK			RTIP			RTOE			RMT1			RMT5			RHEE			
		X1	Y1	Z1	X2	Y2	Z2	X3	Y3	Z3	X4	Y4	Z4	X5	Y5	Z5	X6	Y6	Z6	X7	Y7	Z7	X8	Y8	Z8	X9	Y9	Z9	X10	Y10	Z10	X11	Y11	Z11	X12	Y12	Z12	X13	Y13	Z13	X14	Y14	Z14	X15	Y15	Z15	X16	Y16	Z16	X17	Y17	Z17	X18	Y18	Z18	X19	Y19	Z19	X20	Y20	Z20	X21	Y21	Z21	X22	Y22	Z22	X23	Y23	Z23	X24	Y24	Z24	X25	Y25	Z25	X26	Y26	Z26	X27	Y27	Z27	X28	Y28	Z28	X29	Y29	Z29	X30	Y30	Z30	X31	Y31	Z31	X32	Y32	Z32	X33	Y33	Z33	X34	Y34	Z34	X35	Y35	Z35	X36	Y36	Z36	X37	Y37	Z37	X38	Y38	Z38	X39	Y39	Z39	X40	Y40	Z40	X41	Y41	Z41	X42	Y42	Z42	X43	Y43	Z43	X44	Y44	Z44	X45	Y45	Z45	X46	Y46	Z46	X47	Y47	Z47	X48	Y48	Z48	X49	Y49	Z49	X50	Y50	Z50	X51	Y51	Z51	X52	Y52	Z52	X53	Y53	Z53	

432	4.31	-286.0931091308594	904.2262573242188	-437.8005981445312	-294.6744995117188	919.4818725585938	-296.2339172363281	-305.5049133300781	1011.473815917969	-378.4503784179688	-579.7070922851562	1206.900512695312	-417.9832763671875	-295.85400390625	1136.1953125	-377.7569274902344	-359.1018676757812	1404.152954101562	-410.0657043457031	-544.3178100585938	1320.596801757812	-418.0719909667969	-282.8765258789062	1279.333740234375	-485.938720703125	-339.0006713867188	1362.202514648438	-303.6288146972656	-452.442626953125	1386.617309570312	-241.9992828369141	-463.6031799316406	1271.8125	-139.2945861816406	-513.1190795898438	1060.07958984375	-106.1940383911133	-421.6171264648438	1033.550659179688	-147.9339599609375	-613.7763061523438	880.4089965820312	-181.4486236572266	-588.6951293945312	857.2163696289062	-115.1313095092773	-551.2515258789062	977.8654174804688	-107.3292999267578	-666.7026977539062	732.9962158203125	-169.1423950195312	-617.2785034179688	788.1831665039062	-115.6652069091797	-654.1347045898438	806.7697143554688	-175.1700897216797	-402.0338745117188	1367.976196289062	-575.3677368164062	-365.4742736816406	1308.957275390625	-642.8729858398438	-315.3716125488281	1030.410888671875	-700.6087646484375	-271.8067016601562	1020.3349609375	-649.2572631835938	-391.5449829101562	809.9443359375	-676.6981811523438	-314.8595886230469	808.8281860351562	-720.733154296875	-307.715087890625	972.2612915039062	-711.1353149414062	-359.8432006835938	654.6343994140625	-682.30322265625	-380.71240234375	708.1452026367188	-687.0342407226562	-315.737060546875	721.2757568359375	-721.3438110351562	-468.2633972167969	1594.826416015625	-521.8638916015625	-573.6317138671875	1617.761962890625	-345.5151062011719	-596.9006958007812	1612.418579101562	-473.6593627929688	-421.436279296875	1607.149536132812	-351.0426025390625	-432.1377563476562	827.1792602539062	-177.3065338134766	-412.74072265625	810.2074584960938	-578.78515625	-512.4783935546875	863.7793579101562	-518.3700561523438	-529.8887939453125	858.6574096679688	-262.4547729492188	-367.5541381835938	408.5526428222656	-220.9685974121094	-425.1001586914062	558.4531860351562	-203.8937225341797	-118.77734375	65.69940185546875	-188.9900207519531	-296.0003051757812	267.9762573242188	-201.9605407714844	-322.9405822753906	38.84148788452148	-311.5781555175781	-244.4121551513672	44.47731399536133	-321.0537414550781	-266.1490478515625	43.84219741821289	-209.0265197753906	-61.51522064208984	82.11451721191406	-240.4990386962891	-588.62939453125	457.3272399902344	-563.6511840820312	-493.629150390625	696.807861328125	-593.0861206054688	-690.081298828125	42.10498809814453	-586.7681884765625	-643.8073120117188	326.5175170898438	-580.7103271484375	-894.2105712890625	74.18260955810547	-518.5264282226562	-828.5921630859375	61.78170776367188	-488.0357666015625	-823.4170532226562	54.9189567565918	-593.1656494140625	-620.6914672851562	32.37859344482422	-548.8409423828125	
433	4.32	-295.4236755371094	904.4134521484375	-439.9124145507812	-304.0815124511719	919.2943115234375	-298.2674255371094	-314.6821594238281	1011.185424804688	-381.4103088378906	-588.3223876953125	1208.00390625	-421.2018432617188	-304.6007995605469	1136.006713867188	-381.7744750976562	-366.435546875	1404.181030273438	-414.4609680175781	-552.2574462890625	1321.506713867188	-421.3314819335938	-291.0470275878906	1278.787963867188	-490.5322265625	-345.8638916015625	1362.222778320312	-308.1738586425781	-458.8151550292969	1387.017333984375	-245.5268707275391	-468.5673828125	1271.650390625	-143.0546569824219	-516.9309692382812	1059.61865234375	-109.6923446655273	-426.0974731445312	1033.66650390625	-153.3516387939453	-617.093017578125	878.5494995117188	-182.8793029785156	-590.6966552734375	856.1533203125	-116.7238922119141	-554.3213500976562	977.0265502929688	-110.0252075195312	-668.3008422851562	730.8951416015625	-168.7772369384766	-618.5873413085938	786.8742065429688	-116.4448165893555	-656.476806640625	804.6522827148438	-175.4663848876953	-410.3758850097656	1367.587646484375	-579.5536499023438	-374.5994873046875	1307.917236328125	-647.0982055664062	-326.9142761230469	1029.181884765625	-704.7317504882812	-283.1655883789062	1019.008728027344	-653.566650390625	-403.1588439941406	808.8080444335938	-680.593505859375	-326.6120910644531	807.7605590820312	-725.0370483398438	-319.3842163085938	971.0482788085938	-715.3165283203125	-370.4634399414062	652.8948974609375	-686.6076049804688	-390.2728881835938	705.6644897460938	-690.5245971679688	-327.5002746582031	720.255615234375	-725.9421997070312	-475.1607360839844	1595.4931640625	-525.96142578125	-578.7897338867188	1619.265625	-348.743408203125	-603.2511596679688	1614.040283203125	-476.6658020019531	-426.7547607421875	1607.5517578125	-355.5727844238281	-441.8175048828125	827.119384765625	-179.9066925048828	-422.0008239746094	811.042724609375	-581.2489624023438	-522.0601196289062	865.0264892578125	-521.226318359375	-539.4540405273438	859.1317749023438	-265.2462158203125	-376.5467529296875	408.6808471679688	-222.3049011230469	-434.654052734375	558.6434326171875	-205.8971252441406	-120.8212738037109	70.41410827636719	-188.5410003662109	-302.14794921875	269.4185180664062	-202.3209381103516	-323.1307373046875	38.72812652587891	-311.7178955078125	-245.2906188964844	45.20307540893555	-320.8650512695312	-267.2488708496094	43.89677047729492	-209.0074310302734	-64.03937530517578	88.69708251953125	-240.020751953125	-599.5748291015625	458.8233642578125	-564.9391479492188	-503.1987609863281	697.6764526367188	-595.7720336914062	-691.4374389648438	42.63354873657227	-586.0744018554688	-653.2247314453125	326.5913391113281	-580.9531860351562	-897.807861328125	64.61798095703125	-517.1737060546875	-831.11181640625	55.6168098449707	-486.9681091308594	-825.8018188476562	51.11505126953125	-592.898193359375	-621.6028442382812	34.20397567749023	-548.4281005859375	
434	4.33	-304.5366516113281	905.2396850585938	-441.8079223632812	-313.3150634765625	919.7534790039062	-300.1079711914062	-323.7300109863281	1011.597717285156	-384.2868041992188	-596.8555297851562	1209.65673828125	-424.364501953125	-313.0672607421875	1136.46728515625	-385.5161743164062	-373.7568359375	1404.774047851562	-418.7384643554688	-560.1410522460938	1322.959228515625	-424.5505981445312	-299.1558837890625	1278.863037109375	-494.9760437011719	-352.7735290527344	1362.8525390625	-312.5886840820312	-465.2691040039062	1388.030883789062	-249.0350646972656	-473.655029296875	1272.171630859375	-146.775634765625	-520.6456909179688	1059.805419921875	-113.2603378295898	-430.5678405761719	1034.501708984375	-158.9508514404297	-620.1055908203125	877.20556640625	-184.1130676269531	-592.2445068359375	855.6377563476562	-118.2151641845703	-557.1701049804688	976.7977294921875	-112.7113647460938	-669.31787109375	729.1969604492188	-167.9992370605469	-619.3257446289062	786.1004638671875	-117.0115585327148	-658.39990234375	802.9426879882812	-175.4408416748047	-418.6334533691406	1367.828857421875	-583.6018676757812	-383.6382141113281	1307.563232421875	-651.205810546875	-338.5060424804688	1028.656616210938	-708.736083984375	-294.6069030761719	1018.299560546875	-657.7346801757812	-415.0460815429688	808.423828125	-684.544677734375	-338.5550842285156	807.3825073242188	-729.3291015625	-331.1476135253906	970.5235595703125	-719.4013671875	-381.6690063476562	652.052734375	-691.2066040039062	-400.9536437988281	704.46240234375	-694.4819946289062	-339.4621276855469	719.9640502929688	-730.5924072265625	-482.1443481445312	1596.580322265625	-530.09130859375	-584.0342407226562	1621.234008789062	-352.0372009277344	-609.6740112304688	1616.068603515625	-479.7399597167969	-432.16748046875	1608.466552734375	-360.1555786132812	-451.41845703125	827.5181884765625	-182.5935211181641	-430.9102478027344	812.3364868164062	-583.5711669921875	-531.3135375976562	866.8004150390625	-524.1232299804688	-548.8800048828125	860.1660766601562	-268.1464233398438	-386.3396606445312	409.0776672363281	-223.4413604736328	-444.6935729980469	559.2483520507812	-207.8357849121094	-123.3360061645508	75.71799468994141	-188.1611175537109	-308.9191284179688	271.2473754882812	-202.5458068847656	-323.3176879882812	38.62363815307617	-311.807373046875	-246.4048461914062	46.05236434936523	-320.6430969238281	-268.488037109375	43.96107864379883	-208.9565887451172	-67.27139282226562	96.12535095214844	-239.6578369140625	-610.353271484375	460.7722473144531	-566.3427734375	-512.4188232421875	698.9315795898438	-598.4176635742188	-692.427978515625	43.34448623657227	-585.421875	-662.025146484375	326.9922790527344	-581.3877563476562	-900.2554321289062	57.41448593139648	-515.8314208984375	-832.757080078125	51.14703369140625	-485.9653015136719	-827.4020385742188	48.79228973388672	-592.56494140625	-622.2809448242188	35.62062454223633	-548.0741577148438	
435	4.34	-313.4502563476562	906.6197509765625	-443.5745544433594	-322.3238830566406	920.8600463867188	-301.8429870605469	-332.6289672851562	1012.678894042969	-387.1063232421875	-605.2694091796875	1211.815307617188	-427.4354553222656	-321.191162109375	1137.529418945312	-388.9736022949219	-381.0436096191406	1405.893798828125	-422.87646484375	-567.9492797851562	1324.915771484375	-427.6993103027344	-307.20703125	1279.524047851562	-499.2594604492188	-359.7144165039062	1364.061645507812	-316.8475646972656	-471.8002319335938	1389.643310546875	-252.5200958251953	-478.9129638671875	1273.40283203125	-150.431640625	-524.2857055664062	1060.661376953125	-116.8766937255859	-435.052978515625	1036.07177734375	-164.6745147705078	-622.82421875	876.4302978515625	-185.1212310791016	-593.358154296875	855.6925659179688	-119.6108322143555	-559.8247680664062	977.2113647460938	-115.3700332641602	-669.7274169921875	727.923828125	-166.8485717773438	-619.4937133789062	785.8805541992188	-117.390754699707	-659.9016723632812	801.6698608398438	-175.1141815185547	-426.7917785644531	1368.695922851562	-587.488525390625	-392.5741577148438	1307.919311523438	-655.1782836914062	-350.096435546875	1028.85009765625	-712.6239624023438	-306.0710144042969	1018.221496582031	-661.76513671875	-427.2058410644531	808.8195190429688	-688.556640625	-350.6988220214844	807.7067260742188	-733.597412109375	-342.9620971679688	970.7031860351562	-723.3899536132812	-393.604736328125	652.2258911132812	-696.0764770507812	-412.8384704589844	704.6121826171875	-698.8927001953125	-351.661376953125	720.4012451171875	-735.2593994140625	-489.1746215820312	1598.027709960938	-534.22900390625	-589.344970703125	1623.640258789062	-355.3804321289062	-616.1395874023438	1618.468505859375	-482.8732299804688	-437.6533813476562	1609.851928710938	-364.7586669921875	-460.8713989257812	828.38330078125	-185.3662719726562	-439.57373046875	813.9965209960938	-585.7830810546875	-540.2703247070312	869.005615234375	-527.040771484375	-558.1358032226562	861.7593994140625	-271.12353515625	-396.9951477050781	409.7261962890625	-224.3021240234375	-455.2591247558594	560.2513427734375	-209.6561279296875	-126.369873046875	81.58619689941406	-187.9280395507812	-316.3605346679688	273.4644165039062	-202.583740234375	-323.5062561035156	38.53424072265625	-311.8124389648438	-247.7918701171875	47.02903366088867	-320.4017028808594	-269.8363647460938	44.02178192138672	-208.8753662109375	-71.33197021484375	104.3728332519531	-239.5127716064453	-620.7393798828125	463.0076599121094	-567.859619140625	-521.4952392578125	700.5692749023438	-600.9521484375	-693.1023559570312	44.03259658813477	-584.9231567382812	-670.0257568359375	327.6299743652344	-582.0772705078125	-901.7279663085938	52.44202041625977	-514.6766357421875	-833.6961669921875	48.24684906005859	-485.1488037109375	-828.3739624023438	47.59196472167969	-592.248046875	-622.7551879882812	36.60063171386719	-547.8372192382812	
